<?xml version="1.0" encoding="UTF-8" standalone="no"?>
<svg width="187px" height="184px" viewBox="0 0 187 184" version="1.1" xmlns="http://www.w3.org/2000/svg" xmlns:xlink="http://www.w3.org/1999/xlink">
    <!-- Generator: Sketch 41.2 (35397) - http://www.bohemiancoding.com/sketch -->
    <title>atom</title>
    <desc>Created with Sketch.</desc>
    <defs>
        <circle id="path-1" cx="92" cy="92" r="92"></circle>
        <mask id="mask-2" maskContentUnits="userSpaceOnUse" maskUnits="objectBoundingBox" x="0" y="0" width="184" height="184" fill="white">
            <use xlink:href="#path-1"></use>
        </mask>
    </defs>
    <g id="Page-1" stroke="none" stroke-width="1" fill="none" fill-rule="evenodd">
        <g id="atom">
            <use id="Combined-Shape" stroke="#000000" mask="url(#mask-2)" stroke-width="28" xlink:href="#path-1"></use>
            <path d="M92,143 C120.166522,143 143,120.166522 143,92 C143,63.8334778 120.166522,41 92,41 C63.8334778,41 41,63.8334778 41,92 C41,120.166522 63.8334778,143 92,143 Z M164,60 C176.702549,60 187,49.7025492 187,37 C187,24.2974508 176.702549,14 164,14 C151.297451,14 141,24.2974508 141,37 C141,49.7025492 151.297451,60 164,60 Z" id="Combined-Shape" fill="#45a6f5"></path>
        </g>
    </g>
</svg>